<mxfile host="app.diagrams.net" agent="Mozilla/5.0 (Macintosh; Intel Mac OS X 10_15_7) AppleWebKit/605.1.15 (KHTML, like Gecko) Version/17.5 Safari/605.1.15" version="28.0.4">
  <diagram name="Page-1" id="AoOHqych8ilSh0VwxZmG">
    <mxGraphModel dx="976" dy="671" grid="1" gridSize="10" guides="1" tooltips="1" connect="1" arrows="1" fold="1" page="1" pageScale="1" pageWidth="850" pageHeight="1100" math="0" shadow="0">
      <root>
        <mxCell id="0" />
        <mxCell id="1" parent="0" />
        <mxCell id="97IpdZNSBXY5ucZfJGyh-10" value="" style="shape=image;html=1;verticalAlign=top;verticalLabelPosition=bottom;labelBackgroundColor=#ffffff;imageAspect=0;aspect=fixed;image=https://icons.diagrams.net/icon-cache1/Boxicons_Regular_Vol_1-2633/bx-brain-800.svg" parent="1" vertex="1">
          <mxGeometry x="40" y="105" width="60" height="60" as="geometry" />
        </mxCell>
        <mxCell id="97IpdZNSBXY5ucZfJGyh-11" value="" style="html=1;verticalLabelPosition=bottom;align=center;labelBackgroundColor=#ffffff;verticalAlign=top;strokeWidth=2;strokeColor=#0080F0;shadow=0;dashed=0;shape=mxgraph.ios7.icons.data;" parent="1" vertex="1">
          <mxGeometry x="260" y="110" width="50" height="50" as="geometry" />
        </mxCell>
        <mxCell id="97IpdZNSBXY5ucZfJGyh-12" value="" style="endArrow=classic;html=1;rounded=0;entryX=-0.1;entryY=0.512;entryDx=0;entryDy=0;entryPerimeter=0;" parent="1" target="97IpdZNSBXY5ucZfJGyh-11" edge="1">
          <mxGeometry width="50" height="50" relative="1" as="geometry">
            <mxPoint x="100" y="136" as="sourcePoint" />
            <mxPoint x="130" y="90" as="targetPoint" />
          </mxGeometry>
        </mxCell>
        <mxCell id="97IpdZNSBXY5ucZfJGyh-13" value="" style="endArrow=classic;html=1;rounded=0;exitX=0.48;exitY=1.08;exitDx=0;exitDy=0;exitPerimeter=0;" parent="1" source="97IpdZNSBXY5ucZfJGyh-11" edge="1">
          <mxGeometry width="50" height="50" relative="1" as="geometry">
            <mxPoint x="400" y="340" as="sourcePoint" />
            <mxPoint x="284" y="240" as="targetPoint" />
          </mxGeometry>
        </mxCell>
        <mxCell id="97IpdZNSBXY5ucZfJGyh-14" value="" style="rounded=1;whiteSpace=wrap;html=1;" parent="1" vertex="1">
          <mxGeometry x="225" y="240" width="120" height="250" as="geometry" />
        </mxCell>
      </root>
    </mxGraphModel>
  </diagram>
</mxfile>
